<mxfile host="app.diagrams.net" modified="2023-05-30T12:35:13.123Z" agent="Mozilla/5.0 (Windows NT 10.0; Win64; x64) AppleWebKit/537.36 (KHTML, like Gecko) Chrome/113.0.0.0 Safari/537.36" version="21.2.9" etag="7L13efOlyhJGQ9Mb_5gS" type="github">
  <diagram name="Page-1" id="juJ4R5Gq7oTPgB1RwzO2">
    <mxGraphModel>
      <root>
        <mxCell id="0" />
        <mxCell id="1" parent="0" />
      </root>
    </mxGraphModel>
  </diagram>
</mxfile>
